<svg width="39" height="39" viewBox="0 0 39 39" fill="none" xmlns="http://www.w3.org/2000/svg">
<path d="M10 27.5V24.7H12.7143V21.9H15.4286V19.1H12.7143V16.3H10V13.5H15.4286V16.3H18.1429V19.1H20.8571V16.3H23.5714V13.5H29V16.3H26.2857V19.1H23.5714V21.9H26.2857V24.7H29V27.5H23.5714V24.7H20.8571V21.9H18.1429V24.7H15.4286V27.5H10Z" fill="#00063F"/>
<path d="M38 1V38H1V1H1.00706H1.02194H1.03682H1.0517H1.06657H1.08144H1.0963H1.11116H1.12602H1.14087H1.15572H1.17056H1.1854H1.20023H1.21506H1.22989H1.24471H1.25952H1.27434H1.28915H1.30395H1.31875H1.33355H1.34834H1.36313H1.37791H1.39269H1.40747H1.42224H1.43701H1.45177H1.46653H1.48128H1.49603H1.51078H1.52552H1.54026H1.555H1.56973H1.58445H1.59917H1.61389H1.62861H1.64331H1.65802H1.67272H1.68742H1.70211H1.7168H1.73149H1.74617H1.76084H1.77552H1.79018H1.80485H1.81951H1.83417H1.84882H1.86347H1.87811H1.89275H1.90739H1.92202H1.93665H1.95127H1.96589H1.98051H1.99512H2.00973H2.02433H2.03893H2.05353H2.06812H2.0827H2.09729H2.11187H2.12644H2.14102H2.15558H2.17015H2.18471H2.19926H2.21381H2.22836H2.2429H2.25744H2.27198H2.28651H2.30104H2.31556H2.33008H2.3446H2.35911H2.37362H2.38812H2.40262H2.41712H2.43161H2.4461H2.46058H2.47506H2.48954H2.50401H2.51848H2.53294H2.5474H2.56186H2.57631H2.59076H2.60521H2.61965H2.63408H2.64852H2.66295H2.67737H2.69179H2.70621H2.72062H2.73503H2.74944H2.76384H2.77824H2.79263H2.80702H2.82141H2.83579H2.85017H2.86455H2.87892H2.89329H2.90765H2.92201H2.93636H2.95072H2.96506H2.97941H2.99375H3.00808H3.02242H3.03675H3.05107H3.06539H3.07971H3.09402H3.10833H3.12264H3.13694H3.15124H3.16553H3.17982H3.19411H3.20839H3.22267H3.23695H3.25122H3.26549H3.27975H3.29401H3.30827H3.32252H3.33677H3.35102H3.36526H3.3795H3.39373H3.40796H3.42219H3.43641H3.45063H3.46484H3.47906H3.49326H3.50747H3.52167H3.53587H3.55006H3.56425H3.57843H3.59261H3.60679H3.62097H3.63514H3.64931H3.66347H3.67763H3.69178H3.70594H3.72008H3.73423H3.74837H3.76251H3.77664H3.79077H3.8049H3.81902H3.83314H3.84726H3.86137H3.87548H3.88958H3.90368H3.91778H3.93187H3.94596H3.96005H3.97413H3.98821H4.00229H4.01636H4.03043H4.04449H4.05855H4.07261H4.08666H4.10071H4.11476H4.1288H4.14284H4.15688H4.17091H4.18494H4.19896H4.21299H4.227H4.24102H4.25503H4.26904H4.28304H4.29704H4.31104H4.32503H4.33902H4.353H4.36699H4.38097H4.39494H4.40891H4.42288H4.43684H4.45081H4.46476H4.47872H4.49267H4.50661H4.52056H4.5345H4.54843H4.56237H4.5763H4.59022H4.60414H4.61806H4.63198H4.64589H4.6598H4.6737H4.6876H4.7015H4.7154H4.72929H4.74318H4.75706H4.77094H4.78482H4.79869H4.81256H4.82643H4.84029H4.85415H4.86801H4.88186H4.89571H4.90956H4.9234H4.93724H4.95107H4.96491H4.97873H4.99256H5.00638H5.0202H5.03402H5.04783H5.06164H5.07544H5.08924H5.10304H5.11684H5.13063H5.14442H5.1582H5.17198H5.18576H5.19954H5.21331H5.22708H5.24084H5.2546H5.26836H5.28211H5.29586H5.30961H5.32336H5.3371H5.35083H5.36457H5.3783H5.39203H5.40575H5.41947H5.43319H5.44691H5.46062H5.47432H5.48803H5.50173H5.51543H5.52912H5.54281H5.5565H5.57019H5.58387H5.59755H5.61122H5.62489H5.63856H5.65223H5.66589H5.67955H5.6932H5.70685H5.7205H5.73415H5.74779H5.76143H5.77506H5.7887H5.80233H5.81595H5.82957H5.84319H5.85681H5.87042H5.88403H5.89764H5.91124H5.92484H5.93844H5.95203H5.96562H5.97921H5.99279H6.00637H6.01995H6.03353H6.0471H6.06067H6.07423H6.08779H6.10135H6.11491H6.12846H6.14201H6.15555H6.1691H6.18264H6.19617H6.20971H6.22324H6.23676H6.25029H6.26381H6.27732H6.29084H6.30435H6.31786H6.33136H6.34486H6.35836H6.37186H6.38535H6.39884H6.41233H6.42581H6.43929H6.45277H6.46624H6.47971H6.49318H6.50664H6.5201H6.53356H6.54702H6.56047H6.57392H6.58737H6.60081H6.61425H6.62769H6.64112H6.65455H6.66798H6.6814H6.69482H6.70824H6.72166H6.73507H6.74848H6.76189H6.77529H6.78869H6.80209H6.81548H6.82887H6.84226H6.85565H6.86903H6.88241H6.89578H6.90916H6.92253H6.93589H6.94926H6.96262H6.97598H6.98933H7.00268H7.01603H7.02938H7.04272H7.05606H7.0694H7.08274H7.09607H7.1094H7.12272H7.13604H7.14936H7.16268H7.17599H7.1893H7.20261H7.21592H7.22922H7.24252H7.25581H7.32066H7.38543H7.45014H7.51477H7.57934H7.64384H7.70828H7.77264H7.83694H7.90118H7.96534H8.02944H8.09348H8.15745H8.22135H8.28519H8.34897H8.41268H8.47633H8.53992H8.60344H8.6669H8.7303H8.79364H8.85692H8.92013H8.98328H9.04638H9.10941H9.17239H9.2353H9.29815H9.36095H9.42369H9.48637H9.54899H9.61156H9.67407H9.73652H9.79892H9.86126H9.92354H9.98577H10.0479H10.1101H10.1721H10.2341H10.2961H10.358H10.4199H10.4817H10.5434H10.6051H10.6667H10.7283H10.7899H10.8514H10.9128H10.9742H11.0355H11.0968H11.1581H11.2193H11.2804H11.3415H11.4026H11.4636H11.5245H11.5855H11.6463H11.7071H11.7679H11.8286H11.8893H11.95H12.0106H12.0711H12.1316H12.1921H12.2525H12.3129H12.3733H12.4336H12.4938H12.554H12.6142H12.6743H12.7344H12.7945H12.8545H12.9145H12.9744H13.0343H13.0942H13.154H13.2138H13.2736H13.3333H13.393H13.4526H13.5122H13.5718H13.6313H13.6909H13.7503H13.8098H13.8692H13.9285H13.9879H14.0472H14.1065H14.1657H14.2249H14.2841H14.3432H14.4024H14.4615H14.5205H14.5795H14.6385H14.6975H14.7565H14.8154H14.8743H14.9331H14.992H15.0508H15.1096H15.1683H15.2271H15.2858H15.3444H15.4031H15.4617H15.5203H15.5789H15.6375H15.696H15.7545H15.813H15.8715H15.93H15.9884H16.0468H16.1052H16.1636H16.2219H16.2803H16.3386H16.3969H16.4551H16.5134H16.5716H16.6299H16.6881H16.7463H16.8044H16.8626H16.9207H16.9788H17.037H17.0951H17.1531H17.2112H17.2693H17.3273H17.3853H17.4433H17.5014H17.5593H17.6173H17.6753H17.7333H17.7912H17.8491H17.9071H17.965H18.0229H18.0808H18.1387H18.1966H18.2545H18.3123H18.3702H18.428H18.4859H18.5437H18.6016H18.6594H18.7172H18.7751H18.8329H18.8907H18.9485H19.0063H19.0641H19.1219H19.1797H19.2375H19.2953H19.3531H19.4109H19.4687H19.5265H19.5843H19.6421H19.6999H19.7577H19.8155H19.8733H19.9311H19.9889H20.0467H20.1045H20.1623H20.2201H20.278H20.3358H20.3936H20.4515H20.5093H20.5672H20.625H20.6829H20.7407H20.7986H20.8565H20.9144H20.9723H21.0302H21.0881H21.1461H21.204H21.2619H21.3199H21.3779H21.4359H21.4938H21.5518H21.6099H21.6679H21.7259H21.784H21.8421H21.9001H21.9582H22.0163H22.0745H22.1326H22.1908H22.2489H22.3071H22.3653H22.4235H22.4818H22.54H22.5983H22.6566H22.7149H22.7732H22.8316H22.89H22.9484H23.0068H23.0652H23.1236H23.1821H23.2406H23.2991H23.3577H23.4162H23.4748H23.5334H23.592H23.6507H23.7094H23.7681H23.8268H23.8856H23.9444H24.0032H24.062H24.1209H24.1797H24.2387H24.2976H24.3566H24.4156H24.4746H24.5337H24.5927H24.6519H24.711H24.7702H24.8294H24.8886H24.9479H25.0072H25.0665H25.1259H25.1853H25.2448H25.3042H25.3637H25.4233H25.4828H25.5424H25.6021H25.6618H25.7215H25.7812H25.841H25.9008H25.9607H26.0206H26.0805H26.1405H26.2005H26.2606H26.3207H26.3808H26.441H26.5012H26.5615H26.6217H26.6821H26.7425H26.8029H26.8634H26.9239H26.9844H27.045H27.1056H27.1663H27.2271H27.2878H27.3486H27.4095H27.4704H27.5314H27.5924H27.6534H27.7145H27.7757H27.8369H27.8981H27.9594H28.0207H28.0821H28.1435H28.205H28.2666H28.3282H28.3898H28.4515H28.5132H28.575H28.6369H28.6988H28.7607H28.8227H28.8848H28.9469H29.0091H29.0713H29.1336H29.1959H29.2583H29.3208H29.3833H29.4458H29.5084H29.5711H29.6338H29.6966H29.7595H29.8224H29.8854H29.9484H30.0115H30.0746H30.1378H30.2011H30.2644H30.3278H30.3913H30.4548H30.5184H30.582H30.6457H30.7095H30.7734H30.8373H30.9012H30.9653H31.0293H31.0935H31.1577H31.222H31.2864H31.3508H31.4153H31.4799H31.5445H31.6092H31.674H31.7388H31.8037H31.8687H31.9337H31.9989H32.0641H32.1293H32.1946H32.26H32.3255H32.3911H32.4567H32.5224H32.5882H32.654H32.7199H32.7859H32.852H32.9181H32.9843H33.0506H33.117H33.1835H33.25H33.3166H33.3833H33.45H33.5169H33.5838H33.6508H33.7178H33.785H33.8522H33.9195H33.9869H34.0544H34.122H34.1896H34.2573H34.3251H34.393H34.461H34.5291H34.5972H34.6654H34.7337H34.8021H34.8706H34.9392H35.0078H35.0765H35.1454H35.2143H35.2833H35.3524H35.4215H35.4908H35.5602H35.6296H35.6991H35.7687H35.8384H35.9082H35.9781H36.0481H36.1182H36.1883H36.2586H36.329H36.3994H36.4699H36.5406H36.6113H36.6821H36.753H36.824H36.8951H36.9663H37.0376H37.109H37.1805H37.2521H37.3237H37.3955H37.4674H37.5394H37.6114H37.6836H37.7559H37.8282H37.9007H37.9733H38Z" stroke="#00063F" stroke-width="2"/>
</svg>
