<svg width="39" height="39" viewBox="0 0 39 39" fill="none" xmlns="http://www.w3.org/2000/svg">
<g id="yes_selected">
<g id="Rectangle">
<mask id="path-1-inside-1" fill="white">
<path d="M0 0C2.59019 0 4.98686 0 7.25581 0C18.3284 0 26.3597 0 39 0V39H0V0Z"/>
</mask>
<path d="M0 0C2.59019 0 4.98686 0 7.25581 0C18.3284 0 26.3597 0 39 0V39H0V0Z" stroke="white" stroke-width="4" mask="url(#path-1-inside-1)"/>
</g>
<g id="check">
<path id="x" d="M14.4284 28V25.2H11.7143V22.4H9V19.6H14.4286V22.4L15.7856 22.4L15.7856 25.2H17.1427H18.4999V22.4H19.857V19.6H22.5713V16.8H25.2855V14H30.7141V16.8H27.9998V19.6H25.2855V22.4H22.5713L22.5713 25.2H19.857V28H14.4284Z" fill="white"/>
</g>
</g>
</svg>
